<svg width="16" height="17" viewBox="0 0 16 17" fill="none" xmlns="http://www.w3.org/2000/svg">
<path fill-rule="evenodd" clip-rule="evenodd" d="M8.5109 3.18272C8.67288 3.24983 8.82004 3.34821 8.94399 3.47222L13.056 7.58355C13.1801 7.70751 13.2786 7.85471 13.3457 8.01675C13.4129 8.17879 13.4475 8.35247 13.4475 8.52788C13.4475 8.70329 13.4129 8.87698 13.3457 9.03902C13.2786 9.20106 13.1801 9.34826 13.056 9.47222L8.94399 13.5836C8.82004 13.7076 8.67288 13.8059 8.5109 13.8731C8.34893 13.9402 8.17532 13.9747 7.99999 13.9747C7.82466 13.9747 7.65104 13.9402 7.48907 13.8731C7.3271 13.8059 7.17993 13.7076 7.05599 13.5836L2.94399 9.47222C2.81988 9.34826 2.72142 9.20106 2.65424 9.03902C2.58707 8.87698 2.55249 8.70329 2.55249 8.52788C2.55249 8.35247 2.58707 8.17879 2.65424 8.01675C2.72142 7.85471 2.81988 7.70751 2.94399 7.58355L7.05599 3.47222C7.17993 3.34821 7.3271 3.24983 7.48907 3.18272C7.65104 3.1156 7.82466 3.08105 7.99999 3.08105C8.17532 3.08105 8.34893 3.1156 8.5109 3.18272ZM7.52858 9.66562C7.6536 9.79064 7.82317 9.86088 7.99998 9.86088C8.1768 9.86088 8.34636 9.79064 8.47139 9.66562C8.59641 9.54059 8.66665 9.37102 8.66665 9.19421V5.86088C8.66665 5.68407 8.59641 5.5145 8.47139 5.38948C8.34636 5.26445 8.1768 5.19421 7.99998 5.19421C7.82317 5.19421 7.6536 5.26445 7.52858 5.38948C7.40356 5.5145 7.33332 5.68407 7.33332 5.86088V9.19421C7.33332 9.37102 7.40356 9.54059 7.52858 9.66562ZM7.52858 11.6656C7.6536 11.7906 7.82317 11.8609 7.99998 11.8609C8.1768 11.8609 8.34636 11.7906 8.47139 11.6656C8.59641 11.5406 8.66665 11.371 8.66665 11.1942C8.66665 11.0174 8.59641 10.8478 8.47139 10.7228C8.34636 10.5978 8.1768 10.5275 7.99998 10.5275C7.82317 10.5275 7.6536 10.5978 7.52858 10.7228C7.40356 10.8478 7.33332 11.0174 7.33332 11.1942C7.33332 11.371 7.40356 11.5406 7.52858 11.6656Z" fill="#DE350B"/>
</svg>
