<svg width="300" height="42" viewBox="0 0 300 42" fill="none" xmlns="http://www.w3.org/2000/svg">
<path d="M225.013 27.3708C225.836 26.9475 226.596 26.1796 227.29 25.069L231.455 27.1309C230.588 28.8562 229.307 30.1562 227.615 31.0329C225.922 31.9097 224.093 32.349 222.127 32.349C220.682 32.349 219.314 32.1072 218.028 31.6255C216.742 31.1438 215.613 30.4424 214.644 29.5213C213.675 28.6002 212.909 27.4897 212.345 26.1876C211.781 24.8876 211.5 23.4022 211.5 21.7374C211.5 20.2762 211.761 18.9016 212.281 17.6157C212.802 16.3298 213.526 15.2112 214.451 14.2619C215.376 13.3126 216.497 12.5669 217.812 12.0247C219.128 11.4845 220.568 11.2145 222.129 11.2145C223.72 11.2145 225.158 11.4926 226.446 12.0469C227.732 12.6031 228.833 13.369 229.744 14.3486C230.655 15.3281 231.349 16.5052 231.826 17.8797C232.302 19.2543 232.542 20.774 232.542 22.4408V23.2309H217.617C217.733 24.6337 218.247 25.7825 219.156 26.6734C220.068 27.5642 221.158 28.0117 222.432 28.0117C223.33 28.0056 224.189 27.794 225.013 27.3708ZM219.134 16.7349C218.353 17.4363 217.862 18.4018 217.659 19.6292H226.378C226.147 18.2264 225.627 17.2166 224.817 16.6039C224.008 15.9892 223.096 15.6828 222.083 15.6828C220.899 15.6828 219.916 16.0335 219.134 16.7349Z" fill="#0052CC"/>
<path d="M234.361 17.3053C234.853 15.9892 235.511 14.8787 236.335 13.9717C237.158 13.0647 238.127 12.3774 239.242 11.9098C240.356 11.4422 241.549 11.2084 242.821 11.2084C244.035 11.2084 245.164 11.4503 246.205 11.932C247.245 12.4137 248.143 13.0647 248.894 13.883L248.982 13.8387V0.419434H255.056V31.8613H249.373L249.2 29.6684L249.112 29.6241C248.446 30.3557 247.578 30.9906 246.51 31.5308C245.439 32.0709 244.255 32.341 242.953 32.341C241.708 32.341 240.524 32.1153 239.395 31.6618C238.267 31.2083 237.278 30.5291 236.424 29.6221C235.571 28.7151 234.891 27.6126 234.385 26.3106C233.878 25.0106 233.625 23.497 233.625 21.7717C233.623 20.1129 233.868 18.6215 234.361 17.3053ZM241.062 25.9881C241.916 27.0402 243.036 27.5663 244.424 27.5663C245.812 27.5663 246.918 27.0322 247.742 25.966C248.565 24.8998 248.978 23.4889 248.978 21.7334C248.978 19.9799 248.551 18.5832 247.698 17.5452C246.845 16.5072 245.754 15.9892 244.422 15.9892C242.947 15.9892 241.804 16.5233 240.995 17.5895C240.185 18.6557 239.78 20.0384 239.78 21.7334C239.784 23.5171 240.211 24.936 241.062 25.9881Z" fill="#0052CC"/>
<path d="M269.175 36.4042C269.797 36.0978 270.296 35.6726 270.672 35.1324C271.049 34.5923 271.316 33.9634 271.476 33.2459C271.635 32.5304 271.715 31.7625 271.715 30.9442V29.9365C271.687 29.9365 271.665 29.9284 271.649 29.9143C271.635 29.9002 271.614 29.8921 271.584 29.8921C270.948 30.5351 270.124 31.1054 269.111 31.6033C268.098 32.1011 266.972 32.349 265.727 32.349C264.455 32.349 263.255 32.1233 262.126 31.6698C260.998 31.2163 260.015 30.5512 259.177 29.6744C258.338 28.7977 257.666 27.7013 257.16 26.3851C256.653 25.069 256.4 23.5493 256.4 21.824C256.4 20.1572 256.639 18.6738 257.116 17.3738C257.592 16.0738 258.244 14.9612 259.068 14.0402C259.891 13.1191 260.846 12.4177 261.931 11.936C263.016 11.4543 264.164 11.2124 265.381 11.2124C266.798 11.2124 268.034 11.4744 269.089 12.0025C270.144 12.5285 271.077 13.2299 271.887 14.1067H271.974L272.104 11.6941H277.787V29.1464C277.787 30.3738 277.759 31.3392 277.699 32.0406C277.641 32.742 277.512 33.4596 277.308 34.1892C276.7 36.4405 275.53 38.2161 273.795 39.5182C272.06 40.8202 269.877 41.4692 267.245 41.4692C266.031 41.4692 264.932 41.3523 263.949 41.1185C262.966 40.8847 262.077 40.5844 261.281 40.2196C260.485 39.8548 259.784 39.4375 259.177 38.9699C258.569 38.5024 258.049 38.0489 257.616 37.6115L260.565 33.9715C261.433 34.9067 262.445 35.6242 263.602 36.12C264.758 36.6179 265.843 36.8658 266.856 36.8658C267.779 36.8637 268.553 36.7106 269.175 36.4042ZM263.795 26.0103C264.649 27.0482 265.769 27.5662 267.157 27.5662C268.545 27.5662 269.651 27.0321 270.477 25.9659C271.302 24.8997 271.713 23.4888 271.713 21.7333C271.713 19.9799 271.287 18.5831 270.433 17.5451C269.58 16.5071 268.489 15.9892 267.157 15.9892C265.682 15.9892 264.539 16.5293 263.73 17.6116C262.92 18.694 262.515 20.0827 262.515 21.7777C262.515 23.5614 262.942 24.9723 263.795 26.0103Z" fill="#0052CC"/>
<path d="M292.471 27.3707C293.295 26.9474 294.054 26.1795 294.748 25.0689L298.914 27.1308C298.046 28.8561 296.766 30.1561 295.073 31.0328C293.381 31.9096 291.552 32.3489 289.586 32.3489C288.141 32.3489 286.773 32.1071 285.487 31.6254C284.201 31.1437 283.072 30.4423 282.103 29.5212C281.134 28.6001 280.368 27.4896 279.804 26.1875C279.24 24.8875 278.958 23.4021 278.958 21.7373C278.958 20.2761 279.218 18.9015 279.74 17.6156C280.261 16.3297 280.984 15.2111 281.91 14.2618C282.835 13.3125 283.955 12.5668 285.271 12.0246C286.587 11.4844 288.027 11.2144 289.588 11.2144C291.179 11.2144 292.617 11.4925 293.905 12.0468C295.191 12.603 296.292 13.3689 297.203 14.3485C298.114 15.328 298.808 16.5051 299.285 17.8796C299.761 19.2542 300 20.7739 300 22.4407V23.2308H285.076C285.191 24.6336 285.706 25.7824 286.615 26.6733C287.526 27.5641 288.619 28.0116 289.891 28.0116C290.786 28.0055 291.646 27.7939 292.471 27.3707ZM286.593 16.7348C285.812 17.4362 285.321 18.4016 285.118 19.6291H293.837C293.606 18.2263 293.085 17.2165 292.276 16.6038C291.466 15.9891 290.555 15.6827 289.542 15.6827C288.356 15.6827 287.373 16.0334 286.593 16.7348Z" fill="#0052CC"/>
<path d="M103.37 28.2738C103.005 29.0538 102.461 29.7451 101.733 30.3478C101.005 30.9504 100.102 31.4362 99.0251 31.805C97.9484 32.1738 96.7102 32.3573 95.3145 32.3573C94.2956 32.3573 93.3425 32.2545 92.4552 32.0489C91.5679 31.8433 90.7524 31.5772 90.0106 31.2548C89.2689 30.9303 88.6129 30.5715 88.0466 30.1724C87.4784 29.7754 87.0058 29.3703 86.627 28.9591L89.552 25.2949C90.3676 26.1475 91.2768 26.8186 92.2817 27.3024C93.2867 27.7881 94.2976 28.03 95.3165 28.03C96.1599 28.03 96.8079 27.8526 97.2585 27.4999C97.7092 27.1472 97.9345 26.734 97.9345 26.2644C97.9345 25.6456 97.5855 25.176 96.8857 24.8515C96.5647 24.6741 96.2097 24.527 95.8149 24.4101C95.4221 24.2932 95.0214 24.1602 94.6146 24.0131L93.2607 23.616C92.6486 23.4386 92.1322 23.2633 91.7114 23.0859C91.2887 22.9086 90.89 22.7171 90.5111 22.5115C89.4045 21.923 88.6049 21.2538 88.1104 20.5041C87.6159 19.7543 87.3687 18.7606 87.3687 17.5251C87.3687 16.731 87.5501 15.951 87.915 15.1851C88.2799 14.4193 88.8103 13.7279 89.5082 13.1112C90.206 12.4944 91.0654 12.0006 92.0843 11.6318C93.1032 11.263 94.2816 11.0796 95.6215 11.0796C96.6703 11.0796 97.6015 11.1823 98.417 11.3879C99.2325 11.5935 99.9523 11.8434 100.578 12.1377C101.205 12.432 101.751 12.7625 102.215 13.1313C102.682 13.5002 103.089 13.8307 103.438 14.125L100.513 17.6118C99.9304 17.0233 99.1887 16.5093 98.2854 16.0679C97.3822 15.6265 96.467 15.4068 95.5338 15.4068C94.8359 15.4068 94.2537 15.562 93.7871 15.8704C93.3205 16.1788 93.0893 16.5839 93.0893 17.0837C93.0893 17.4667 93.2428 17.7831 93.5479 18.0331C93.8529 18.283 94.2098 18.4825 94.6186 18.6296C94.9974 18.7768 95.3823 18.9158 95.7751 19.0489C96.1679 19.1819 96.6125 19.321 97.107 19.4681L98.5047 19.9095C99.2624 20.1453 100.018 20.4617 100.776 20.8588C101.534 21.2558 102.188 21.7638 102.74 22.3805C103.525 23.2633 103.918 24.4403 103.918 25.9117C103.916 26.7058 103.735 27.4938 103.37 28.2738Z" fill="#0052CC"/>
<path d="M104.79 17.4384C105.315 16.1444 106.057 15.0258 107.018 14.0846C107.979 13.1433 109.135 12.4077 110.489 11.8776C111.843 11.3475 113.334 11.0835 114.965 11.0835C116.596 11.0835 118.08 11.3475 119.42 11.8776C120.76 12.4077 121.908 13.1433 122.869 14.0846C123.83 15.0258 124.572 16.1444 125.097 17.4384C125.621 18.7323 125.882 20.1452 125.882 21.675C125.882 23.2047 125.621 24.6257 125.097 25.9337C124.572 27.2438 123.83 28.3685 122.869 29.3097C121.908 30.2509 120.76 30.9947 119.42 31.5388C118.08 32.083 116.596 32.3551 114.965 32.3551C113.334 32.3551 111.843 32.083 110.489 31.5388C109.135 30.9947 107.979 30.2509 107.018 29.3097C106.057 28.3685 105.315 27.2418 104.79 25.9337C104.266 24.6236 104.005 23.2047 104.005 21.675C104.005 20.1452 104.266 18.7323 104.79 17.4384ZM118.457 25.8894C119.3 24.7849 119.723 23.3801 119.723 21.675C119.723 19.9678 119.3 18.5771 118.457 17.5049C117.613 16.4306 116.449 15.8945 114.963 15.8945C113.478 15.8945 112.308 16.4306 111.448 17.5049C110.589 18.5791 110.16 19.9698 110.16 21.675C110.16 23.3821 110.589 24.7869 111.448 25.8894C112.308 26.9919 113.478 27.5441 114.963 27.5441C116.449 27.5461 117.613 26.9939 118.457 25.8894Z" fill="#0052CC"/>
<path d="M129.417 30.0838C127.758 28.5681 126.929 26.3249 126.929 23.352V11.5674H133.086V23.616C133.086 24.9402 133.385 25.9258 133.981 26.5728C134.577 27.2198 135.401 27.5443 136.448 27.5443C137.437 27.5443 138.26 27.2419 138.914 26.6393C139.568 26.0367 139.897 25.0289 139.897 23.616V11.5674H146.054V23.3077C146.054 24.8959 145.785 26.2644 145.247 27.4133C144.708 28.5601 144.003 29.5033 143.129 30.239C142.256 30.9747 141.259 31.5108 140.138 31.8494C139.018 32.188 137.875 32.3573 136.711 32.3573C133.507 32.3573 131.076 31.5995 129.417 30.0838Z" fill="#0052CC"/>
<path d="M158.65 16.8197C158.112 16.7028 157.639 16.6423 157.231 16.6423C155.891 16.6423 154.924 17.1139 154.327 18.0552C153.731 18.9964 153.432 20.2178 153.432 21.7193V31.8714H147.275V11.5672H153.039L153.171 14.0826H153.259C154.074 13.0527 154.94 12.2948 155.857 11.8091C156.774 11.3234 157.697 11.0815 158.63 11.0815C159.155 11.0815 159.641 11.14 160.094 11.2589C160.544 11.3758 160.975 11.539 161.382 11.7446L160.247 17.3054C159.721 17.0998 159.189 16.9386 158.65 16.8197Z" fill="#0052CC"/>
<path d="M166.925 24.2347C167.186 24.9704 167.529 25.5811 167.952 26.0668C168.375 26.5525 168.869 26.9194 169.438 27.1693C170.006 27.4192 170.594 27.5442 171.206 27.5442C172.195 27.5442 173.003 27.3305 173.629 26.9032C174.255 26.4759 174.903 25.7342 175.573 24.6741L179.852 27.1894C178.863 28.8663 177.603 30.1462 176.075 31.029C174.548 31.9118 172.851 32.3532 170.989 32.3532C169.591 32.3532 168.253 32.1032 166.971 31.6034C165.691 31.1035 164.562 30.39 163.587 29.4629C162.612 28.5358 161.833 27.4172 161.251 26.1091C160.668 24.799 160.377 23.3217 160.377 21.673C160.377 20.0243 160.668 18.5469 161.251 17.2369C161.833 15.9268 162.612 14.8162 163.587 13.9052C164.562 12.9922 165.691 12.2948 166.971 11.8091C168.251 11.3234 169.591 11.0815 170.989 11.0815C172.851 11.0815 174.548 11.5229 176.075 12.4057C177.603 13.2885 178.863 14.5683 179.852 16.2452L175.573 18.7606C175.194 18.1136 174.664 17.4727 173.98 16.8398C173.296 16.2069 172.371 15.8905 171.206 15.8905C169.808 15.8905 168.68 16.4266 167.823 17.5009C166.963 18.5752 166.534 19.9659 166.534 21.671C166.532 22.6465 166.662 23.499 166.925 24.2347Z" fill="#0052CC"/>
<path d="M193.016 27.3466C193.845 26.9193 194.609 26.1474 195.309 25.0287L199.5 27.1027C198.626 28.8381 197.338 30.1481 195.636 31.0309C193.933 31.9137 192.092 32.3551 190.112 32.3551C188.657 32.3551 187.281 32.1133 185.987 31.6275C184.691 31.1418 183.556 30.4364 182.581 29.5092C181.606 28.5821 180.835 27.4635 180.266 26.1554C179.698 24.8453 179.415 23.3519 179.415 21.675C179.415 20.2036 179.676 18.821 180.201 17.527C180.725 16.2331 181.453 15.1064 182.384 14.1511C183.315 13.1957 184.444 12.4439 185.768 11.8998C187.092 11.3556 188.541 11.0835 190.112 11.0835C191.714 11.0835 193.161 11.3636 194.457 11.9219C195.753 12.4802 196.858 13.2542 197.775 14.2398C198.692 15.2253 199.39 16.4105 199.871 17.7931C200.351 19.1757 200.59 20.7055 200.59 22.3824V23.1765H185.57C185.686 24.5894 186.204 25.7443 187.12 26.6412C188.035 27.5381 189.135 27.9875 190.415 27.9875C191.319 27.9875 192.186 27.7739 193.016 27.3466ZM187.098 16.6443C186.312 17.3497 185.818 18.3212 185.612 19.5567H194.389C194.156 18.1438 193.632 17.13 192.818 16.5112C192.003 15.8925 191.085 15.5841 190.067 15.5841C188.874 15.5841 187.885 15.9368 187.098 16.6443Z" fill="#0052CC"/>
<path d="M86.8454 22.3765C86.8454 20.6996 86.6061 19.1698 86.1256 17.7892C85.6451 16.4066 84.9472 15.2235 84.03 14.2379C83.1128 13.2523 82.0081 12.4804 80.7141 11.9221C79.42 11.3638 77.9724 11.0836 76.3713 11.0836C74.8001 11.0836 73.3525 11.3557 72.0286 11.8999C70.8861 12.3695 69.8911 12.9923 69.0417 13.7683L67.7636 20.0325L65.9232 19.3089C65.7617 20.0687 65.6799 20.8548 65.6799 21.669C65.6799 23.3459 65.9631 24.8374 66.5313 26.1475C67.0996 27.4556 67.8693 28.5742 68.8443 29.5013C69.8193 30.4284 70.9539 31.1339 72.2479 31.6196C73.542 32.1053 74.9178 32.3472 76.3733 32.3472C78.3513 32.3472 80.1917 31.9058 81.8945 31.023C83.5973 30.1402 84.8834 28.8321 85.7567 27.0968L81.5675 25.0228C80.8696 26.1415 80.1059 26.9134 79.2765 27.3387C78.447 27.7659 77.5816 27.9776 76.6804 27.9776C75.4003 27.9776 74.3016 27.5301 73.3844 26.6312C72.4672 25.7343 71.9508 24.5794 71.8352 23.1686H86.8494V22.3765H86.8454ZM71.875 19.5528C72.0784 18.3173 72.5729 17.3458 73.3585 16.6404C74.1441 15.9349 75.1331 15.5822 76.3255 15.5822C77.3444 15.5822 78.2596 15.8906 79.0751 16.5094C79.8906 17.1261 80.413 18.1419 80.6463 19.5528H71.875Z" fill="#0052CC"/>
<path d="M65.6254 16.8187C65.0871 16.7018 64.6145 16.6414 64.2078 16.6414C62.8698 16.6414 61.9008 17.111 61.3046 18.0522C60.7084 18.9935 60.4093 20.2149 60.4093 21.7144V31.8604H54.2561V11.5683H60.0165L60.1481 14.0837H60.2359C61.0514 13.0538 61.9167 12.2959 62.8339 11.8122C63.7511 11.3265 64.6743 11.0846 65.6055 11.0846C66.1299 11.0846 66.6164 11.1431 67.067 11.262C67.5177 11.3789 67.9464 11.5421 68.3551 11.7477L67.2206 17.3065C66.6942 17.0969 66.1638 16.9356 65.6254 16.8187Z" fill="#0052CC"/>
<path d="M42.9747 0H-0.000244141V41.5275H42.9747V0Z" fill="#0052CC"/>
<path d="M34.2762 17.1059C34.2762 15.7898 34.0868 14.5905 33.7099 13.5042C33.3331 12.4198 32.7847 11.4907 32.0649 10.7167C31.3451 9.94279 30.4778 9.33814 29.4609 8.89876C28.444 8.45938 27.3094 8.2417 26.0533 8.2417C24.821 8.2417 23.6845 8.45534 22.6456 8.88263C21.7484 9.25147 20.9688 9.74124 20.3008 10.3499L19.2979 15.2677L17.8543 14.7014C17.7286 15.298 17.6628 15.9147 17.6628 16.5536C17.6628 17.8698 17.8862 19.0408 18.3308 20.0687C18.7755 21.0966 19.3816 21.9733 20.1473 22.7009C20.9129 23.4285 21.8022 23.9828 22.8191 24.3637C23.836 24.7447 24.9147 24.9341 26.0572 24.9341C27.6105 24.9341 29.0541 24.5874 30.39 23.8961C31.726 23.2028 32.7369 22.1769 33.4208 20.8144L30.1328 19.1879C29.5845 20.0647 28.9863 20.6713 28.3343 21.0059C27.6843 21.3405 27.0044 21.5078 26.2965 21.5078C25.2916 21.5078 24.4302 21.155 23.7104 20.4516C22.9906 19.7482 22.5858 18.8412 22.4941 17.7327H34.2782V17.1059H34.2762ZM22.526 14.8908C22.6855 13.9214 23.0743 13.1595 23.6905 12.6053C24.3066 12.051 25.0842 11.7749 26.0194 11.7749C26.8189 11.7749 27.5387 12.0167 28.1768 12.5025C28.8168 12.9882 29.2276 13.7843 29.409 14.8908H22.526Z" fill="white"/>
<path d="M17.6205 12.7444C17.1978 12.6517 16.8269 12.6054 16.5079 12.6054C15.4571 12.6054 14.6974 12.9742 14.2308 13.7139C13.7623 14.4536 13.529 15.411 13.529 16.588V24.5513H8.69971V8.62272H13.2219L13.3256 10.5959H13.3934C14.0334 9.78768 14.7114 9.19311 15.4312 8.81218C16.151 8.43125 16.8748 8.24179 17.6065 8.24179C18.0173 8.24179 18.4001 8.28815 18.755 8.38086C19.108 8.47357 19.4449 8.60055 19.766 8.76179L18.8747 13.1254C18.4599 12.9641 18.0432 12.8371 17.6205 12.7444Z" fill="white"/>
<path d="M34.4465 33.2866V28.8867L8.53155 28.8867V33.2866L34.4465 33.2866Z" fill="white"/>
</svg>
